<svg xmlns="http://www.w3.org/2000/svg" viewBox="0 0 512 512" role="img" aria-label="LIMS Issues">
  <path fill="#000" d="M89 34h334c14 0 25 11 25 25v394c0 14-11 25-25 25H89c-14 0-25-11-25-25V59c0-14 11-25 25-25Zm56 38h222v42H145V72Zm42 71H99v88h88v-88Zm0 112H99v88h88v-88Zm0 112H99v88h88v-88Zm55-206h148v26H242v-26Zm0 42h232v26H242v-26Zm0 70h148v26H242v-26Zm0 42h232v26H242v-26Zm0 70h148v26H242v-26Zm0 42h114v26H242v-26Z"/>
  <path fill="#000" d="m119 179 34 34 88-100c8-9 21-10 30-2s10 21 2 30L170 258c-4 5-10 7-16 7-5 0-11-2-15-6l-50-50c-8-8-8-22 0-30s22-8 30 0Zm0 112 34 34 88-100c8-9 21-10 30-2s10 21 2 30L170 370c-4 5-10 7-16 7-5 0-11-2-15-6l-50-50c-8-8-8-22 0-30s22-8 30 0Z"/>
  <path fill="#000" d="M374 275c15-23 49-23 64 0l67 103c16 24-1 56-30 56H337c-29 0-46-32-30-56l67-103Zm19 43v56c0 7 6 13 13 13s13-6 13-13v-56c0-7-6-13-13-13s-13 6-13 13Zm0 93c0 7 6 13 13 13s13-6 13-13-6-13-13-13-13 6-13 13Z"/>
</svg>
